<svg width="17" height="16" viewBox="0 0 17 16" fill="none" xmlns="http://www.w3.org/2000/svg">
<g clip-path="url(#clip0_1305_169)">
<path d="M7.57724 9.37465C6.05007 7.84748 5.70524 6.32031 5.62745 5.70845C5.60571 5.53926 5.66393 5.3696 5.78497 5.24941L7.02083 4.0141C7.20263 3.83242 7.23489 3.54927 7.09862 3.33134L5.1309 0.275894C4.98014 0.034583 4.67061 -0.0525085 4.41614 0.0747902L1.25724 1.56251C1.05147 1.66384 0.930432 1.88247 0.953795 2.11065C1.11931 3.68307 1.80483 7.54845 5.60345 11.3473C9.40207 15.1462 13.2669 15.8315 14.8401 15.997C15.0683 16.0204 15.287 15.8993 15.3883 15.6935L16.876 12.5347C17.0028 12.2807 16.9163 11.972 16.676 11.821L13.6206 9.85382C13.4028 9.71742 13.1196 9.74945 12.9378 9.93107L11.7025 11.1669C11.5823 11.288 11.4126 11.3462 11.2434 11.3244C10.6316 11.2467 9.10441 10.9018 7.57724 9.37465Z" fill="#DFD1A7"/>
<path d="M13.6415 8.55171C13.3368 8.55171 13.0898 8.30469 13.0898 7.99999C13.0872 5.71574 11.2361 3.86464 8.95187 3.86205C8.64716 3.86205 8.40015 3.61504 8.40015 3.31033C8.40015 3.00562 8.64716 2.75861 8.95187 2.75861C11.8453 2.7618 14.1901 5.10658 14.1933 7.99999C14.1933 8.30469 13.9462 8.55171 13.6415 8.55171Z" fill="#DFD1A7"/>
<path d="M16.4001 8.55172C16.0954 8.55172 15.8484 8.30471 15.8484 8C15.8442 4.1929 12.759 1.10771 8.95187 1.10345C8.64716 1.10345 8.40015 0.856433 8.40015 0.551724C8.40015 0.247015 8.64716 0 8.95187 0C13.3681 0.00486507 16.947 3.58374 16.9519 8C16.9519 8.14633 16.8937 8.28666 16.7903 8.39013C16.6868 8.4936 16.5465 8.55172 16.4001 8.55172Z" fill="#DFD1A7"/>
</g>
<defs>
<clipPath id="clip0_1305_169">
<rect width="16" height="16" fill="white" transform="translate(0.951904)"/>
</clipPath>
</defs>
</svg>
